<?xml version="1.0" encoding="utf-8"?>
<!-- Generator: Adobe Illustrator 19.0.0, SVG Export Plug-In . SVG Version: 6.00 Build 0)  -->
<svg version="1.1" id="Layer_1" xmlns="http://www.w3.org/2000/svg" xmlns:xlink="http://www.w3.org/1999/xlink" x="0px" y="0px"
	 viewBox="-387.5 379.4 42.1 42.5" style="enable-background:new -387.5 379.4 42.1 42.5;" xml:space="preserve">
<style type="text/css">
	.st0{fill:#FFFFFF;stroke:#007075;stroke-miterlimit:10;}
	.st1{fill:#007075;}
</style>
<circle class="st0" cx="-366.5" cy="400.6" r="20.2"/>
<path class="st1" d="M-354.1,401.3l-3.6-6.4c-0.3-0.4-0.7-0.7-1.2-0.8c-0.3-0.1-0.6,0-0.9,0.2c-0.6,0.5-0.7,1.2-0.3,2.1l1.2,2.6
	l1.4,2.5c2.2,4.1,1.5,8-2.1,11.7c-0.3,0.3-0.5,0.5-0.8,0.7c1.4-0.1,2.9-0.7,4.3-2.1C-352.4,407.9-352.6,403.9-354.1,401.3z
	 M-360.4,412.4c3.4-3.4,4-6.8,2-10.5l-3.4-5.9c-0.3-0.4-0.7-0.7-1.2-0.8c-0.3-0.1-0.6,0-0.9,0.2c-0.6,0.5-0.7,1.2-0.3,2.1l1.7,3.6
	c0.1,0.3,0,0.6-0.3,0.7c-0.2,0.1-0.4,0-0.6-0.1l-8.9-8.9c-0.5-0.5-1.4-0.5-1.9,0.1c-0.5,0.5-0.5,1.3,0,1.8l5.3,5.3
	c0.2,0.2,0.2,0.5,0,0.7c-0.2,0.2-0.5,0.2-0.7,0l-5.3-5.3l-1.5-1.5c-0.5-0.5-1.4-0.5-1.9,0c-0.5,0.5-0.5,1.4,0,1.9l1.5,1.5l5.3,5.3
	c0.2,0.2,0.2,0.5,0,0.7c-0.1,0.1-0.2,0.1-0.4,0.1c-0.1,0-0.3-0.1-0.4-0.1l-5.3-5.3c-0.5-0.5-1.4-0.5-1.9,0c-0.5,0.5-0.5,1.4,0,1.9
	l2.2,2.2l3.3,3.3c0.2,0.2,0.2,0.5,0,0.7c-0.1,0.1-0.2,0.1-0.4,0.1c-0.1,0-0.3-0.1-0.4-0.1l-3.3-3.3c-0.5-0.5-1.4-0.5-1.9,0
	c0,0,0,0,0,0c-0.3,0.2-0.4,0.6-0.4,0.9c0,0.4,0.1,0.7,0.4,0.9l6.4,6.4C-369.7,414.6-364.4,416.4-360.4,412.4L-360.4,412.4z
	 M-370.3,393.3l5.7,5.7l-0.5-1c-0.5-1.1-0.4-2.1,0.2-2.9l-3.3-3.3c-0.5-0.5-1.4-0.5-1.9,0c-0.3,0.2-0.4,0.6-0.4,0.9
	C-370.4,392.9-370.4,393.1-370.3,393.3z M-355.5,412.4c-1.6,1.6-3.4,2.4-5.4,2.4c-0.3,0-0.7,0-1.1-0.1c-1.1,0.6-2.4,0.9-3.7,0.9
	c-3,0-6.1-1.6-8.4-3.9l-6.4-6.4c-0.4-0.4-0.7-1-0.7-1.6c0-1.1,0.8-2.1,1.9-2.3l-0.9-0.9c-0.9-0.9-0.9-2.4,0-3.3
	c0.3-0.3,0.8-0.6,1.2-0.6l-0.1-0.1c-0.9-0.9-0.9-2.4,0-3.3c0.9-0.9,2.4-0.9,3.3,0l0.1,0.1c0.2-1.3,1.4-2.1,2.7-1.9
	c0.5,0.1,0.9,0.3,1.2,0.6l0.1,0.1c0.1-0.4,0.3-0.8,0.6-1.2c0.9-0.9,2.4-0.9,3.3,0l3.4,3.4c0.4-0.2,0.8-0.2,1.3-0.2
	c0.5,0.1,1,0.4,1.4,0.8c0.1-0.5,0.4-1,0.9-1.4c0.5-0.4,1.1-0.5,1.7-0.4c0.7,0.1,1.4,0.6,1.9,1.3l3.7,6.4
	C-351.6,403.7-351.3,408.2-355.5,412.4z M-369.8,384.5l-1.9,0.9l2.4,2.8L-369.8,384.5L-369.8,384.5z M-361.3,385.4l-1.9-0.9
	l-0.4,3.7C-363.7,388.2-361.3,385.4-361.3,385.4z M-366.5,387.3l-1-3.3h2L-366.5,387.3z"/>
</svg>
